<svg width="28" height="21" viewBox="0 0 28 21" fill="none" xmlns="http://www.w3.org/2000/svg">
<path d="M26.0723 3.26367L24.3487 20.5716H3.64647L2.25781 3.59864L13.9976 10.1716L26.0723 3.26367Z" fill="#E4E4E4"/>
<path d="M25.4958 0L14.0057 10.7935L2.51562 0H14.0057H25.4958Z" fill="#E4E4E4"/>
<path d="M3.64888 4.98477V20.569H1.77296C1.07016 20.569 0.5 19.9989 0.5 19.2961V2.68945L2.55664 2.74551L3.64888 4.98477Z" fill="#F14336"/>
<path d="M27.4926 2.6894V19.2961C27.4926 19.9989 26.9225 20.569 26.219 20.569H24.3438V4.98472L25.3822 2.53125L27.4926 2.6894Z" fill="#D32E2A"/>
<path d="M27.5 1.27296V2.68861L24.3511 4.98393L14 12.5285L3.64887 4.98393L0.5 2.68861V1.27296C0.5 0.570164 1.07016 0 1.77296 0H2.50992L14 8.37469L25.4901 0H26.2264C26.9298 0 27.5 0.570111 27.5 1.27296Z" fill="#F14336"/>
<path d="M3.64888 4.98477L0.5 4.49655V2.68945L3.64888 4.98477Z" fill="#D32E2A"/>
</svg>
